# xmcd
#
# Track frame offsets: 
#        150
#        16391
#        36718
#        52168
#        64072
#        81044
#        98492
#        112954
#        133878
#        148857
#        164383
#        177845
#
# Disc length: 2581 seconds
#
# Revision: 0
# Processed by: cddbd v1.5PL3 Copyright (c) Steve Scherf et al.
# Submitted via: ExactAudioCopy v0.95a4
#
DISCID=a90a130c
DTITLE=ASPM - Poradny blues
DYEAR=1987
DGENRE=
TTITLE0=Poradny blues
TTITLE1=Kruti pisen
TTITLE2=Posedlej Alois
TTITLE3=Ruce
TTITLE4=Loupacek
TTITLE5=Skandal
TTITLE6=Panenka
TTITLE7=Zavolej jen moje jmeno
TTITLE8=Blues pro pana Vanka
TTITLE9=Uzenej vecer
TTITLE10=Zahrada v desti
TTITLE11=Mestacky blues
EXTD=
EXTT0=
EXTT1=
EXTT2=
EXTT3=
EXTT4=
EXTT5=
EXTT6=
EXTT7=
EXTT8=
EXTT9=
EXTT10=
EXTT11=
PLAYORDER=
